<?xml version="1.0" standalone="no"?>
<!DOCTYPE svg PUBLIC "-//W3C//DTD SVG 20010904//EN"
 "http://www.w3.org/TR/2001/REC-SVG-20010904/DTD/svg10.dtd">
<svg version="1.0" xmlns="http://www.w3.org/2000/svg"
 width="1004.000000pt" height="1004.000000pt" viewBox="0 0 1004.000000 1004.000000"
 preserveAspectRatio="xMidYMid meet">
<metadata>
Created by potrace 1.14, written by Peter Selinger 2001-2017
</metadata>
<g transform="translate(0.000000,1004.000000) scale(0.100000,-0.100000)"
fill="#000000" stroke="none">
<path d="M8134 10031 c-2 -3 -10 -6 -17 -7 -12 -2 -47 -9 -97 -19 -29 -6 -60
-13 -92 -21 -13 -3 -34 -7 -48 -10 -14 -3 -54 -12 -90 -20 -74 -18 -95 -22
-130 -29 -51 -10 -76 -15 -97 -20 -13 -3 -32 -7 -44 -10 -11 -2 -28 -6 -37 -9
-17 -5 -50 -12 -112 -22 -19 -3 -38 -8 -43 -11 -4 -2 -19 -7 -34 -9 -15 -3
-59 -12 -98 -21 -38 -8 -88 -19 -110 -24 -22 -4 -51 -11 -65 -14 -14 -3 -36
-8 -49 -11 -21 -4 -121 -26 -176 -39 -130 -30 -249 -54 -287 -60 -27 -4 -48
-11 -48 -15 0 -5 -8 -7 -17 -6 -10 2 -33 -1 -53 -6 -67 -16 -215 -49 -245 -54
-16 -3 -43 -9 -60 -14 -16 -5 -43 -11 -60 -14 -16 -2 -59 -11 -95 -20 -36 -8
-76 -17 -90 -20 -43 -9 -71 -15 -88 -20 -9 -3 -28 -7 -42 -10 -28 -4 -190 -39
-300 -65 -25 -5 -58 -12 -75 -15 -16 -3 -45 -10 -63 -15 -18 -5 -35 -10 -37
-10 -3 0 -31 -5 -63 -12 -31 -7 -64 -13 -72 -14 -9 0 -21 -5 -28 -9 -7 -4 -16
-6 -19 -3 -3 3 -16 2 -30 -4 -13 -5 -38 -11 -54 -14 -17 -3 -68 -14 -113 -25
-45 -10 -93 -21 -106 -23 -14 -3 -54 -12 -90 -20 -36 -8 -82 -18 -104 -21 -21
-4 -42 -8 -46 -11 -3 -2 -22 -7 -41 -10 -19 -3 -83 -17 -144 -31 -60 -13 -119
-26 -130 -28 -11 -2 -51 -11 -90 -20 -38 -10 -85 -19 -104 -22 -19 -3 -45 -10
-58 -15 -13 -5 -23 -7 -23 -4 0 2 -15 -1 -32 -6 -18 -5 -49 -12 -68 -15 -19
-3 -38 -8 -41 -10 -4 -2 -24 -7 -45 -10 -48 -8 -68 -12 -71 -14 -4 -3 -13 -6
-58 -15 -71 -14 -89 -18 -187 -40 -13 -3 -36 -8 -52 -11 -16 -2 -33 -7 -36 -9
-4 -3 -25 -7 -46 -11 -22 -3 -57 -10 -79 -16 -22 -5 -50 -12 -62 -14 -13 -2
-33 -6 -45 -8 -22 -4 -155 -35 -223 -52 -5 -1 -26 -5 -45 -9 -19 -3 -75 -15
-125 -26 -49 -12 -99 -22 -110 -25 -11 -2 -41 -8 -66 -14 -26 -6 -55 -13 -65
-15 -11 -2 -19 -4 -19 -5 0 -1 -11 -3 -25 -5 -14 -1 -47 -8 -75 -15 -27 -6
-59 -14 -70 -16 -46 -9 -63 -13 -126 -28 -37 -8 -78 -17 -90 -20 -48 -10 -181
-39 -189 -41 -7 -2 -80 -17 -104 -21 -10 -2 -20 -5 -22 -7 -5 -5 225 -157 237
-157 5 0 9 -5 9 -11 0 -5 4 -8 9 -5 5 4 11 2 13 -2 1 -5 55 -42 118 -83 120
-77 234 -151 260 -169 14 -9 239 -154 294 -190 13 -8 42 -26 65 -39 22 -14 41
-28 41 -33 0 -4 5 -8 10 -8 6 0 64 -36 131 -80 66 -44 122 -80 125 -80 8 0 69
-44 72 -52 2 -5 8 -8 13 -8 6 0 64 -36 130 -80 65 -44 123 -80 128 -80 4 0 16
-9 26 -20 10 -11 24 -20 30 -20 7 0 18 -6 24 -13 8 -10 -3 -35 -48 -103 -83
-126 -131 -203 -132 -212 -1 -4 -9 -12 -18 -19 -9 -7 -11 -13 -6 -13 7 0 7 -3
0 -8 -10 -7 -105 -148 -105 -155 0 -3 -31 -51 -68 -108 -38 -57 -71 -108 -73
-114 -2 -5 -25 -41 -50 -80 -74 -113 -119 -185 -119 -190 1 -3 -5 -12 -12 -19
-11 -10 -72 -103 -138 -211 -41 -67 -191 -301 -197 -310 -5 -5 -24 -35 -43
-65 -19 -30 -39 -58 -45 -62 -5 -4 -6 -8 -1 -8 5 0 2 -8 -6 -17 -18 -21 -198
-302 -198 -309 0 -3 -5 -10 -11 -17 -5 -7 -29 -41 -51 -77 -23 -36 -75 -116
-116 -179 -41 -63 -79 -125 -85 -138 -5 -13 -14 -23 -19 -23 -4 0 -8 -6 -8
-13 0 -7 -7 -22 -15 -32 -9 -11 -45 -65 -80 -120 -35 -55 -89 -140 -121 -190
-31 -49 -80 -126 -109 -170 -28 -44 -73 -115 -101 -158 -27 -43 -56 -89 -64
-102 -8 -13 -37 -59 -64 -102 -28 -43 -79 -123 -114 -178 -123 -191 -149 -230
-188 -293 -21 -34 -66 -104 -99 -155 -34 -50 -64 -99 -68 -107 -8 -18 -30 -53
-37 -60 -11 -11 -50 -70 -50 -75 0 -3 -37 -63 -83 -133 -46 -70 -100 -154
-121 -187 -20 -33 -63 -101 -95 -151 l-58 -91 31 -24 c17 -13 43 -31 58 -38
16 -8 28 -18 28 -23 0 -4 4 -8 10 -8 5 0 64 -36 131 -80 67 -44 126 -80 130
-80 5 0 9 -4 9 -10 0 -5 4 -10 10 -10 9 0 158 -96 170 -109 3 -3 25 -17 49
-30 25 -13 50 -28 55 -33 11 -9 68 -47 329 -214 84 -54 154 -101 157 -104 7
-7 41 -29 60 -37 8 -4 20 -11 25 -15 6 -5 37 -26 70 -47 33 -22 127 -82 208
-135 81 -53 150 -96 153 -96 3 0 14 -8 25 -18 10 -11 32 -25 47 -33 15 -8 36
-22 46 -31 11 -10 23 -18 27 -18 11 0 103 -62 107 -72 2 -4 8 -8 13 -8 12 0
151 -90 161 -105 5 -6 8 -6 8 0 0 6 3 6 8 0 4 -6 70 -51 147 -100 204 -130
328 -212 342 -224 7 -6 24 -16 38 -21 14 -5 25 -14 25 -20 0 -5 5 -10 11 -10
6 0 30 -14 54 -30 24 -17 48 -30 53 -30 6 0 12 -3 14 -7 3 -9 93 -73 101 -73
3 0 59 -36 126 -80 66 -44 125 -80 131 -80 5 0 10 -4 10 -9 0 -4 20 -19 45
-32 25 -13 45 -27 45 -31 0 -5 4 -8 9 -8 9 0 160 -96 187 -119 6 -5 24 -16 40
-25 16 -9 41 -24 55 -34 45 -29 174 -113 322 -209 78 -51 151 -99 162 -108 10
-8 25 -15 31 -15 7 0 14 -3 16 -8 2 -4 25 -22 53 -39 l50 -32 22 24 c13 13 23
27 23 30 0 5 174 282 249 395 20 30 43 67 50 83 8 15 18 27 23 27 4 0 8 5 8
10 0 9 67 118 80 130 3 3 26 38 50 78 25 40 52 84 60 97 8 14 44 71 79 127 36
57 73 112 83 124 10 11 18 24 18 28 0 4 18 34 40 66 22 32 40 64 40 70 0 6 7
13 15 16 8 4 15 10 15 15 0 7 91 156 140 229 15 23 101 156 148 230 22 36 45
70 49 75 5 6 12 17 16 25 9 18 -6 -6 232 367 105 163 191 303 193 310 2 7 8
13 13 13 5 0 14 11 19 25 5 14 14 31 20 38 10 11 29 41 166 257 26 41 67 105
91 143 23 37 62 97 86 135 24 37 65 99 90 139 26 40 47 77 47 82 0 5 4 11 8
13 4 1 27 35 51 73 24 39 48 73 53 76 6 3 9 8 7 10 -1 2 15 31 36 64 21 33 58
92 83 130 24 39 53 82 63 97 10 15 19 32 19 38 0 5 5 10 10 10 6 0 10 7 10 15
0 8 5 15 10 15 6 0 10 5 10 10 0 6 5 16 10 23 9 10 122 187 179 278 124 199
302 474 318 489 12 11 16 12 20 2 3 -6 9 -10 14 -6 5 3 9 1 9 -5 0 -5 9 -13
20 -16 11 -3 26 -12 32 -18 10 -10 149 -100 249 -162 9 -5 49 -32 90 -59 87
-58 169 -110 299 -194 52 -34 101 -66 108 -72 6 -6 12 -7 12 -3 0 4 5 0 11 -9
5 -10 15 -18 20 -18 13 0 103 -60 107 -72 2 -4 8 -8 14 -8 6 0 47 -24 92 -53
224 -148 291 -191 292 -187 0 3 8 -2 17 -10 29 -27 46 -40 51 -40 5 0 136 -85
152 -98 5 -5 21 -15 35 -22 13 -7 70 -44 127 -82 57 -37 105 -68 108 -68 6 0
-1 61 -10 81 -4 9 -6 20 -5 25 1 5 0 11 -1 14 -2 6 -7 27 -14 65 -6 31 -12 60
-21 98 -3 12 -12 51 -19 87 -12 56 -29 132 -50 230 -5 22 -15 68 -31 140 -3
14 -8 39 -10 55 -3 17 -8 38 -11 47 -7 24 -14 58 -19 97 -3 18 -7 36 -10 40
-2 4 -7 23 -10 42 -3 19 -13 63 -21 99 -8 36 -19 85 -24 110 -5 25 -12 56 -15
70 -3 14 -7 36 -10 50 -10 53 -14 72 -19 88 -3 9 -8 31 -10 47 -3 17 -17 80
-31 140 -15 61 -26 117 -27 125 0 8 -6 40 -14 70 -7 30 -15 66 -18 80 -2 14
-11 57 -20 95 -15 74 -22 106 -31 153 -3 15 -15 65 -25 112 -11 47 -22 96 -24
110 -3 14 -16 79 -31 145 -15 66 -28 129 -31 140 -2 11 -8 40 -14 65 -5 25
-12 59 -15 75 -4 17 -7 35 -9 40 -2 9 -9 40 -22 105 -1 8 -10 46 -19 83 -8 37
-13 72 -10 77 4 6 2 10 -3 10 -7 0 -20 50 -36 150 -1 8 -12 58 -24 110 -11 52
-35 160 -52 240 -17 80 -34 156 -37 170 -3 14 -7 32 -9 40 -2 8 -6 31 -10 50
-4 19 -9 42 -10 50 -1 8 -5 26 -9 40 -3 14 -8 36 -11 50 -2 14 -6 34 -9 45 -2
11 -5 22 -5 25 -1 3 -5 23 -11 45 -21 89 -40 181 -42 208 -1 9 -5 17 -10 17
-4 0 -6 3 -4 8 5 7 -25 163 -37 192 -3 8 -8 31 -11 50 -8 52 -16 92 -30 150
-12 50 -36 166 -40 193 -3 16 -7 32 -10 37 -3 4 -8 25 -11 46 -6 40 -7 42 -17
84 -11 48 -60 275 -63 295 -2 11 -6 31 -9 45 -4 14 -13 57 -21 95 -15 75 -18
88 -33 150 -5 22 -12 54 -15 70 -5 33 -9 48 -26 115 -6 25 -11 52 -12 60 -1
26 -55 258 -63 271 -6 8 -4 10 4 4 10 -6 11 -3 2 12 -5 11 -13 34 -16 52 -7
42 -33 161 -41 188 -5 19 -36 28 -50 14z m-3474 -3685 c145 -18 132 -16 220
-36 25 -6 56 -13 69 -16 13 -3 32 -9 43 -15 10 -5 18 -7 18 -4 0 3 16 -2 36
-10 20 -8 45 -15 55 -15 11 0 19 -4 19 -8 0 -5 7 -9 15 -9 18 0 105 -38 210
-91 39 -20 80 -41 92 -46 13 -6 23 -14 23 -18 0 -5 5 -8 10 -8 9 0 88 -47 100
-60 3 -3 19 -14 35 -24 114 -72 412 -362 423 -412 2 -8 7 -14 12 -14 4 0 19
-17 32 -37 12 -20 30 -47 38 -59 53 -79 160 -276 166 -304 0 -3 6 -18 13 -35
65 -152 124 -363 125 -447 1 -16 3 -28 6 -28 3 0 7 -17 8 -37 5 -70 12 -137
17 -141 2 -2 0 -15 -5 -28 -5 -13 -6 -24 -2 -24 12 0 3 -223 -13 -340 -12 -87
-40 -214 -63 -280 -3 -8 -6 -19 -7 -25 -1 -5 -3 -12 -4 -15 -2 -3 -4 -12 -6
-20 -1 -9 -14 -45 -28 -80 -31 -81 -39 -104 -37 -109 1 -2 -2 -7 -7 -10 -9 -7
-73 -138 -72 -147 0 -4 -3 -10 -8 -13 -4 -3 -17 -23 -28 -43 -11 -21 -23 -38
-27 -38 -5 0 -8 -5 -8 -11 0 -10 -83 -135 -99 -149 -3 -3 -24 -27 -45 -55 -59
-75 -171 -188 -256 -257 -41 -34 -81 -68 -87 -77 -7 -8 -13 -12 -13 -8 0 4
-21 -9 -46 -28 -26 -20 -61 -43 -78 -52 -17 -9 -33 -19 -36 -23 -5 -6 -240
-123 -285 -142 -141 -57 -213 -49 -233 27 -5 17 -8 167 -7 335 2 392 -11 469
-99 574 -22 28 -33 47 -24 43 10 -3 20 -2 23 4 4 5 10 7 15 4 4 -3 32 0 61 6
30 6 66 13 81 15 14 3 55 13 90 23 35 10 70 20 78 22 8 2 53 23 100 46 246
123 373 303 435 618 19 92 22 382 5 403 -3 3 -5 10 -14 62 -5 24 -12 51 -17
60 -4 8 -22 44 -39 79 -27 56 -52 95 -107 170 -10 13 -9 26 2 64 8 26 12 47 9
47 -3 0 -2 6 3 13 4 6 7 26 8 44 0 17 3 35 7 39 4 4 5 11 1 17 -3 6 -7 36 -8
66 -1 31 -8 83 -15 116 -8 33 -13 63 -12 68 1 4 -3 7 -8 7 -5 0 -9 3 -8 8 4
16 -14 52 -28 53 -49 5 -63 4 -99 -3 -103 -20 -272 -94 -375 -163 -47 -31 -59
-35 -90 -29 -19 3 -45 8 -57 9 -11 2 -32 7 -45 11 -12 4 -27 8 -33 9 -12 1
-127 15 -170 21 -35 5 -281 5 -340 0 -22 -2 -60 -7 -85 -11 -25 -5 -58 -9 -75
-10 -16 -2 -37 -5 -45 -8 -89 -32 -119 -31 -179 6 -77 47 -191 109 -191 102 0
-2 -18 5 -40 16 -74 39 -216 66 -251 48 -14 -7 -20 -19 -34 -71 -2 -5 -3 -9
-5 -10 -2 -4 -6 -21 -19 -83 -10 -51 -8 -242 3 -282 3 -13 8 -32 10 -43 3 -11
7 -24 10 -29 5 -8 -33 -63 -55 -81 -3 -3 -24 -39 -47 -80 -52 -98 -70 -150
-89 -265 -12 -75 -6 -277 11 -375 3 -14 7 -38 10 -55 14 -85 71 -222 127 -305
35 -52 132 -160 144 -160 3 0 15 -9 27 -20 12 -11 34 -26 50 -32 15 -7 28 -16
28 -20 0 -5 4 -8 10 -8 5 0 37 -13 72 -29 55 -26 176 -64 241 -77 12 -2 33 -6
47 -9 14 -3 45 -7 69 -10 24 -2 46 -6 48 -9 2 -2 -13 -30 -34 -63 -47 -70 -63
-113 -72 -194 -1 -6 -62 -34 -98 -44 -72 -20 -145 -25 -155 -10 -5 7 -8 6 -8
-1 0 -11 -75 2 -125 22 -24 9 -77 45 -87 59 -4 6 -8 7 -8 2 0 -11 -63 62 -105
123 -55 79 -132 153 -190 180 -62 29 -173 34 -199 8 -9 -9 -16 -19 -16 -23 0
-11 68 -73 96 -88 41 -21 98 -89 161 -192 12 -20 45 -85 47 -95 13 -50 108
-170 134 -170 7 0 12 -3 12 -8 0 -4 19 -16 43 -26 38 -17 66 -26 137 -43 30
-7 198 -6 255 1 22 3 51 7 65 8 l25 3 2 -195 c1 -205 -4 -237 -46 -260 -46
-24 -137 -4 -253 56 -14 8 -33 14 -41 14 -8 0 -20 7 -27 15 -7 8 -16 12 -21 9
-5 -3 -9 0 -9 6 0 6 -3 9 -7 7 -5 -2 -21 4 -38 14 -16 10 -41 24 -55 31 -14 7
-29 16 -35 21 -21 16 -86 57 -91 57 -3 0 -10 5 -17 10 -7 6 -41 33 -77 60
-135 105 -266 233 -353 345 -68 89 -97 129 -97 135 0 5 -6 15 -13 22 -18 19
-88 143 -127 224 -61 129 -69 149 -81 194 -7 25 -16 50 -19 55 -6 8 -27 83
-35 125 -1 3 -4 19 -8 35 -4 17 -10 41 -13 55 -3 14 -7 36 -10 50 -9 37 -15
89 -17 142 -1 27 -4 48 -7 48 -13 0 0 372 15 450 2 13 7 42 10 65 4 22 18 83
32 135 14 52 26 100 27 105 7 26 56 157 74 195 8 19 16 37 17 40 3 17 99 193
126 232 11 14 19 29 19 32 0 3 6 14 14 23 8 10 43 56 78 103 81 109 249 277
358 358 47 35 92 69 100 75 24 19 131 83 180 107 25 13 48 28 52 34 4 6 8 7 8
3 0 -5 14 -1 30 7 17 9 43 22 58 30 36 19 288 103 327 109 17 3 53 10 80 17
53 12 78 16 190 26 39 4 71 8 73 9 4 3 305 -4 342 -9z"/>
</g>
</svg>
