<svg width="228" height="251" viewBox="0 0 228 251" fill="none" xmlns="http://www.w3.org/2000/svg">
<path fill-rule="evenodd" clip-rule="evenodd" d="M193.018 0L227.919 162.464L180.746 131.881L104.992 250.573L0 182.506L75.7539 63.8132L31.8606 35.3564L193.018 0ZM49.5947 142.048C49.5947 114.423 71.9697 92.0476 99.5947 92.0476C127.22 92.0476 149.595 114.423 149.595 142.048C149.593 152.524 146.305 162.736 140.195 171.246C134.084 179.756 125.459 186.135 115.532 189.485C113.032 189.985 112.095 188.423 112.095 187.11C112.095 185.423 112.157 180.048 112.157 173.36C112.157 168.673 110.595 165.673 108.782 164.11C119.907 162.86 131.595 158.61 131.595 139.423C131.595 133.923 129.657 129.485 126.47 125.985C126.97 124.735 128.72 119.61 125.97 112.735C125.97 112.735 121.782 111.36 112.22 117.86C108.22 116.735 103.97 116.173 99.7197 116.173C95.4697 116.173 91.2197 116.735 87.2197 117.86C77.6572 111.423 73.4697 112.735 73.4697 112.735C70.7197 119.61 72.4697 124.735 72.9697 125.985C69.7822 129.485 67.8447 133.985 67.8447 139.423C67.8447 158.548 79.4697 162.86 90.5947 164.11C89.1572 165.36 87.8447 167.548 87.4072 170.798C84.5322 172.11 77.3447 174.235 72.8447 166.673C71.9072 165.173 69.0947 161.485 65.1572 161.548C60.9697 161.61 63.4697 163.923 65.2197 164.86C67.3447 166.048 69.7822 170.485 70.3447 171.923C71.3447 174.735 74.5947 180.11 87.1572 177.798C87.1572 180.53 87.1838 183.156 87.2024 184.981C87.2122 185.953 87.2197 186.698 87.2197 187.11C87.2197 188.423 86.2822 189.923 83.7822 189.485C63.9072 182.86 49.5947 164.173 49.5947 142.048Z" fill="black"/>
</svg>
